#N canvas 476 214 635 649 10;
#X obj 119 90 metro 1000;
#X obj 119 112 t b b;
#X obj 33 244 *~;
#X msg 146 137 1 10;
#X obj 33 100 noise~;
#X msg 119 185 0 50;
#X obj 119 163 del 10;
#X obj 33 597 dac~;
#X msg 161 293 feedfwd \$1;
#X msg 161 411 indelay \$1;
#X obj 164 268 hsl 128 15 0 1 0 0 empty empty empty -2 -8 0 10 -262144
-1 -1 0 1;
#X floatatom 238 293 5 0 0 0 - - -;
#X obj 164 388 hsl 128 15 0 50 0 0 empty empty empty -2 -8 0 10 -262144
-1 -1 0 1;
#X obj 119 60 tgl 15 0 empty empty empty 17 7 0 10 -262144 -1 -1 0
1;
#X obj 33 122 *~ 0.1;
#X text 39 36 Comb filter;
#X text 305 267 Feedforward amount (0...0.999);
#X obj 164 328 hsl 128 15 0 1 0 0 empty empty empty -2 -8 0 10 -262144
-1 -1 0 1;
#X floatatom 268 353 5 0 0 0 - - -;
#X text 305 327 Feedback amount (0...0.999);
#X msg 161 353 feedback \$1;
#X floatatom 238 413 5 0 0 0 - - -;
#X obj 164 448 hsl 128 15 0 50 0 0 empty empty empty -2 -8 0 10 -262144
-1 -1 0 1;
#X floatatom 238 473 5 0 0 0 - - -;
#X text 299 449 Input delay time (0...50ms);
#X obj 163 498 hsl 128 15 0 50 0 0 empty empty empty -2 -8 0 10 -262144
-1 -1 0 1;
#X floatatom 237 523 5 0 0 0 - - -;
#X msg 160 521 slide \$1;
#X text 299 499 Delay update interpolation time (0...1000ms);
#X text 299 389 Output delay time (0...50ms);
#X msg 161 471 outdelay \$1;
#X obj 33 561 hv.comb~;
#X obj 119 207 line~;
#X connect 0 0 1 0;
#X connect 1 0 6 0;
#X connect 1 1 3 0;
#X connect 2 0 31 0;
#X connect 3 0 32 0;
#X connect 4 0 14 0;
#X connect 5 0 32 0;
#X connect 6 0 5 0;
#X connect 8 0 31 1;
#X connect 9 0 31 1;
#X connect 10 0 8 0;
#X connect 10 0 11 0;
#X connect 12 0 9 0;
#X connect 12 0 21 0;
#X connect 13 0 0 0;
#X connect 14 0 2 0;
#X connect 17 0 20 0;
#X connect 17 0 18 0;
#X connect 20 0 31 1;
#X connect 22 0 30 0;
#X connect 22 0 23 0;
#X connect 25 0 27 0;
#X connect 25 0 26 0;
#X connect 27 0 31 1;
#X connect 30 0 31 1;
#X connect 31 0 7 0;
#X connect 31 0 7 1;
#X connect 32 0 2 1;
