#N canvas 485 59 520 418 10;
#X text 22 10 This abstraction presents an alternative implementation
to the exp~ object. Heavy uses the system's expf() function (as does
Pd) \, but some applications may wish to avoid the expf() function
entirely \, and instead use this reasonably fast approximation.;
#X obj 35 178 sig~;
#X obj 86 205 loadbang;
#X obj 86 229 metro 100;
#X obj 86 263 snapshot~;
#X floatatom 35 150 5 0 0 0 - - -;
#X floatatom 86 288 7 0 0 0 - - -;
#X text 105 128 raises the Euler number 'e' (about 2.718) \, to the
power of the input signal., f 43;
#X text 213 199 See also:;
#X obj 35 205 hv.exp~;
#X obj 287 198 hv.pow~;
#X text 211 276 updated for heavylib version 0.2;
#X connect 1 0 9 0;
#X connect 2 0 3 0;
#X connect 3 0 4 0;
#X connect 4 0 6 0;
#X connect 5 0 1 0;
#X connect 9 0 4 0;
