#N canvas 877 440 376 419 10;
#X obj 35 76 osc~ 440;
#X obj 36 162 *~;
#X obj 36 346 *~ 0.5;
#X obj 37 374 dac~;
#X obj 107 164 hsl 128 15 0 500 0 0 empty empty attack -2 -8 0 10 #fcfcfc #000000 #000000 0 1;
#X obj 95 257 noise~;
#X obj 95 284 *~ 0.1;
#X obj 70 309 *~;
#X text 178 113 <-- trigger;
#X text 32 33 Envelope follower with adjustable attack parameter;
#X floatatom 114 186 5 0 0 0 - - - 0;
#X obj 169 200 hsl 128 15 0 1000 0 0 empty empty release -2 -8 0 10 #fcfcfc #000000 #000000 0 1;
#X floatatom 166 220 5 0 0 0 - - - 0;
#X msg 51 112 0 \, 1 1 0 \, 0 100 10;
#X obj 70 232 hv.envfollow~;
#X obj 51 138 hv.vline~;
#X connect 0 0 1 0;
#X connect 1 0 2 0;
#X connect 1 0 14 0;
#X connect 2 0 3 0;
#X connect 2 0 3 1;
#X connect 4 0 10 0;
#X connect 4 0 14 1;
#X connect 5 0 6 0;
#X connect 6 0 7 1;
#X connect 7 0 2 0;
#X connect 11 0 12 0;
#X connect 11 0 14 2;
#X connect 13 0 15 0;
#X connect 14 0 7 0;
#X connect 15 0 1 1;
