#N canvas 1 52 1156 753 10;
#X obj 33 188 noise~;
#X obj 33 210 *~ 0.1;
#X obj 456 63 hsl 128 15 20 20000 0 0 empty empty empty -2 -8 0 10 #fcfcfc #000000 #000000 0 1;
#X obj 453 41 r freq @hv_param 100 10000 300;
#X text 70 96 Available filters:;
#X obj 33 326 s~ \$0-bp1;
#X obj 785 207 hv.filters/spectrolog;
#X obj 786 454 hv.filters/spectrolog;
#X text 31 57 Includes signal-rate coefficient updating to avoid clicks when sweeping the controls.;
#X obj 440 205 hv.filters/spectrolog;
#X obj 441 452 hv.filters/spectrolog;
#X obj 440 180 r~ \$0-bp1;
#X obj 441 427 r~ \$0-bp2;
#X obj 33 270 r~ \$0-noise;
#X obj 33 370 r~ \$0-noise;
#X obj 668 63 hsl 128 15 0.1 100 0 0 empty empty empty -2 -8 0 10 #fcfcfc #000000 #000000 0 1;
#X obj 665 41 r q @hv_param 0.1 100 0.707;
#X msg 665 86 \$1 100;
#X obj 33 426 s~ \$0-bp2;
#X obj 33 232 s~ \$0-noise;
#X obj 33 460 r~ \$0-noise;
#X obj 33 550 r~ \$0-noise;
#X obj 33 640 r~ \$0-noise;
#X obj 33 516 s~ \$0-allpass;
#X text 31 19 Generic filter module with swappable filter types and frequency \, Q settings.;
#X msg 453 86 \$1 1000;
#X obj 785 182 r~ \$0-lp;
#X obj 786 429 r~ \$0-hp;
#X obj 33 696 s~ \$0-hp;
#X text 120 112 allpass;
#X text 120 132 lowpass;
#X text 120 152 highpass;
#X text 120 172 bandpass1 (constant skirt gain \, peak gain = Q);
#X text 120 192 bandpass2 (constant 0 dB peak gain);
#X text 120 212 notch;
#X obj 33 606 s~ \$0-lp;
#X obj 33 298 hv.filter~ bandpass1 2000 20;
#X obj 33 398 hv.filter~ bandpass2 1000 2;
#X obj 33 488 hv.filter~ allpass 1000 2;
#X obj 33 577 hv.filter~ lowpass 1000 2;
#X obj 33 668 hv.filter~ highpass 1000 2;
#X obj 112 370 r~ \$0-freq;
#X obj 192 370 r~ \$0-q;
#X obj 453 108 line~;
#X obj 665 108 line~;
#X obj 453 139 s~ \$0-freq;
#X obj 665 139 s~ \$0-q;
#X floatatom 559 114 13 0 0 0 - - - 16;
#X obj 106 550 r~ \$0-freq;
#X obj 180 550 r~ \$0-q;
#X obj 109 640 r~ \$0-freq;
#X obj 186 642 r~ \$0-q;
#X obj 115 270 r~ \$0-freq;
#X obj 198 270 r~ \$0-q;
#X obj 106 460 r~ \$0-freq;
#X obj 180 460 r~ \$0-q;
#X connect 0 0 1 0;
#X connect 1 0 19 0;
#X connect 2 0 25 0;
#X connect 2 0 47 0;
#X connect 3 0 2 0;
#X connect 11 0 9 0;
#X connect 12 0 10 0;
#X connect 13 0 36 0;
#X connect 14 0 37 0;
#X connect 15 0 17 0;
#X connect 16 0 15 0;
#X connect 17 0 44 0;
#X connect 20 0 38 0;
#X connect 21 0 39 0;
#X connect 22 0 40 0;
#X connect 25 0 43 0;
#X connect 26 0 6 0;
#X connect 27 0 7 0;
#X connect 36 0 5 0;
#X connect 37 0 18 0;
#X connect 38 0 23 0;
#X connect 39 0 35 0;
#X connect 40 0 28 0;
#X connect 41 0 37 1;
#X connect 42 0 37 2;
#X connect 43 0 45 0;
#X connect 44 0 46 0;
#X connect 48 0 39 1;
#X connect 49 0 39 2;
#X connect 50 0 40 1;
#X connect 51 0 40 2;
#X connect 52 0 36 1;
#X connect 53 0 36 2;
#X connect 54 0 38 1;
#X connect 55 0 38 2;
