#N canvas 1049 51 259 226 10;
#X obj 53 42 inlet~;
#X obj 53 171 outlet~;
#X obj 53 139 hv.filters/\$1 \$2 \$3;
#X obj 100 63 inlet~ freq;
#X obj 147 93 inlet~ q;
#X connect 0 0 2 0;
#X connect 2 0 1 0;
#X connect 3 0 2 1;
#X connect 4 0 2 2;
