#N canvas 105 57 328 226 10;
#X obj 108 63 inlet freq;
#X obj 142 86 inlet q;
#X obj 53 42 inlet~;
#X obj 53 171 outlet~;
#X obj 53 139 hv.filters/\$1 \$2 \$3;
#X obj 171 109 inlet gain;
#X connect 0 0 4 1;
#X connect 1 0 4 2;
#X connect 2 0 4 0;
#X connect 4 0 3 0;
#X connect 5 0 4 3;
