#N canvas 1049 51 259 226 10;
#X obj 53 42 inlet~;
#X obj 53 171 outlet~;
#X obj 91 64 inlet~ freq;
#X obj 129 92 inlet~ q;
#X obj 53 139 hv.filters.sig/\$1;
#X connect 0 0 4 0;
#X connect 2 0 4 1;
#X connect 3 0 4 2;
#X connect 4 0 1 0;
