#N canvas 107 100 527 592 10;
#X obj 142 331 hv.filters/spectrolog;
#X obj 86 107 hsl 128 19 0 127 0 1 empty empty Cutoff -2 -8 0 10 #00ff04 #000000 #000000 7000 1;
#X floatatom 83 131 5 0 0 0 - - - 0;
#X msg 83 151 \$1 20;
#X obj 83 172 line~;
#X obj 83 203 +~;
#X obj 22 432 dac~ 1 2;
#X obj 83 224 mtof~;
#X obj 37 370 tgl 16 0 empty empty empty 0 -8 0 10 #fcfcfc #000000 #000000 0 1;
#X obj 22 396 *~;
#X obj 22 305 *~ 0.2;
#X obj 22 279 hv.hip~;
#X obj 22 115 noise~;
#X obj 137 151 osc~ 0.5;
#X obj 137 177 *~ 48;
#X text 20 31 A variant of [hip~] that has a signal-controlled cutoff. Like [hip~] \, the filter has no effect when the cutoff is above SR/(2pi).;
#X connect 1 0 2 0;
#X connect 2 0 3 0;
#X connect 3 0 4 0;
#X connect 4 0 5 0;
#X connect 5 0 7 0;
#X connect 7 0 11 1;
#X connect 8 0 9 1;
#X connect 9 0 6 0;
#X connect 9 0 6 1;
#X connect 10 0 0 0;
#X connect 10 0 9 0;
#X connect 11 0 10 0;
#X connect 12 0 11 0;
#X connect 13 0 14 0;
#X connect 14 0 5 1;
