#N canvas 894 370 413 448 10;
#X obj 207 72 samplerate~;
#X obj 207 51 loadbang;
#X obj 125 192 sig~ 1;
#X obj 125 220 -~;
#X obj 207 114 / 2;
#X obj 12 322 outlet~;
#X obj 207 93 t f f;
#X obj 82 110 inlet~;
#X obj 12 78 inlet~;
#X obj 82 136 clip~ 0 22050;
#X obj 92 246 *~;
#X obj 186 262 rpole~;
#X obj 219 183 *~ -6.28319;
#X obj 189 162 /~ 44100;
#X text 12 13 One-pole Lowpass Filter;
#X text 8 389 https://www.musicdsp.org/en/latest/Filters/237-one-pole-filter-lp-and-hp.html;
#X text 8 369 Reference:;
#X text 82 90 Inlet 2: Frequency;
#X text 12 342 Outlet 1: lowpass output;
#X text 12 58 Inlet 1: Input;
#N canvas 152 188 516 403 hv.exp~ 0;
#X obj 17 13 inlet~;
#X obj 19 338 outlet~;
#X obj 17 38 *~ 0.000976562;
#X obj 17 62 +~ 1;
#X obj 17 112 *~;
#X obj 17 87 *~;
#X obj 18 162 *~;
#X obj 18 137 *~;
#X obj 18 214 *~;
#X obj 18 189 *~;
#X obj 19 264 *~;
#X obj 19 239 *~;
#X obj 19 314 *~;
#X obj 19 289 *~;
#X text 122 10 https://en.wikipedia.org/wiki/Exponential_function;
#X text 121 29 https://codingforspeed.com/using-faster-exponential-approximation/;
#X connect 0 0 2 0;
#X connect 2 0 3 0;
#X connect 3 0 5 0;
#X connect 3 0 5 1;
#X connect 4 0 7 0;
#X connect 4 0 7 1;
#X connect 5 0 4 0;
#X connect 5 0 4 1;
#X connect 6 0 9 0;
#X connect 6 0 9 1;
#X connect 7 0 6 0;
#X connect 7 0 6 1;
#X connect 8 0 11 0;
#X connect 8 0 11 1;
#X connect 9 0 8 0;
#X connect 9 0 8 1;
#X connect 10 0 13 0;
#X connect 10 0 13 1;
#X connect 11 0 10 0;
#X connect 11 0 10 1;
#X connect 12 0 1 0;
#X connect 13 0 12 0;
#X connect 13 0 12 1;
#X restore 219 204 pd hv.exp~;
#X obj 12 296 -~;
#X connect 0 0 6 0;
#X connect 1 0 0 0;
#X connect 2 0 3 0;
#X connect 3 0 10 1;
#X connect 4 0 9 2;
#X connect 6 0 4 0;
#X connect 6 1 13 1;
#X connect 7 0 9 0;
#X connect 8 0 10 0;
#X connect 8 0 21 0;
#X connect 9 0 13 0;
#X connect 10 0 11 0;
#X connect 11 0 21 1;
#X connect 12 0 20 0;
#X connect 13 0 12 0;
#X connect 20 0 11 1;
#X connect 20 0 3 1;
#X connect 21 0 5 0;
