#N canvas 359 420 324 252 10;
#X obj 148 108 inlet phase;
#X obj 97 132 hv.lfo/\$1;
#X obj 97 78 inlet freq;
#X obj 97 174 outlet;
#X connect 0 0 1 1 empty;
#X connect 1 0 3 0 empty;
#X connect 2 0 1 0 empty;
