#N canvas 699 146 1189 640 10;
#X obj 243 514 hv.lfo sine;
#X floatatom 511 240 10 0 0 0 empty - - 16;
#X msg 499 182 0.01;
#X msg 669 181 1;
#X msg 566 185 0.1;
#X msg 442 182 0.001;
#X text 678 139 frequency (Hz);
#X text 1177 228 phase reset;
#X obj 1203 338 vsl 17 128 0 1 0 0 empty empty empty 0 -9 0 10 #191919 #ffffff #ffffff 0 1;
#X msg 1198 298 0.5;
#X msg 734 181 2;
#X msg 1190 257 reset;
#X msg 616 180 0.3;
#X floatatom 302 691 11 0 0 0 empty - - 12;
#X floatatom 666 690 12 0 0 0 empty - - 16;
#X floatatom 831 700 12 0 0 0 empty - - 12;
#X obj 788 756 oscope~ 128 142 64 3 64 0 1 0 0 0 0 255 255 255 25 25 25 57 57 57 0 empty;
#X obj 783 725 sig~;
#X obj 409 747 oscope~ 130 142 64 3 64 0 1 0 0 0 0 255 255 255 25 25 25 57 57 57 0 empty;
#X obj 406 712 sig~;
#X obj 959 756 oscope~ 130 142 64 3 64 0 1 0 0 0 0 255 255 255 25 25 25 57 57 57 0 empty;
#X obj 956 721 sig~;
#X obj 243 747 oscope~ 117 142 64 3 64 0 1 0 0 0 0 255 255 255 25 25 25 57 57 57 0 empty;
#X obj 243 708 sig~;
#X obj 611 753 oscope~ 130 142 64 3 64 0 1 0 0 0 0 255 255 255 25 25 25 57 57 57 0 empty;
#X obj 604 719 sig~;
#X floatatom 1045 711 11 0 0 0 empty - - 12;
#X obj 1151 749 oscope~ 130 142 64 3 64 0 1 0 0 0 0 255 255 255 25 25 25 57 57 57 0 empty;
#X obj 1144 711 sig~;
#X floatatom 1233 701 10 0 0 0 empty - - 8;
#X floatatom 460 688 11 0 0 0 empty - - 12;
#X obj 405 514 hv.lfo ramp;
#X obj 610 514 hv.lfo saw;
#X obj 782 514 hv.lfo triangle;
#X msg 788 179 5;
#X obj 955 514 hv.lfo square;
#X obj 1143 514 hv.lfo pulse;
#X msg 693 262 \$0;
#X obj 57 795 throw~ \$0-sine-array1;
#X obj 1071 106 vsl 17 128 1.27 127 1 0 empty empty empty 0 -9 0 10 #191919 #ffffff #ffffff 0 1;
#X obj -99 1002 spectrograph~ 1024 1 1 300 140 100;
#X msg -124 922 log 1;
#X msg -56 915 db 1;
#X obj 275 1033 spectrograph~ 1024 1 1 300 140 100;
#X msg 250 953 log 1;
#X msg 318 946 db 1;
#X msg 846 179 5.38;
#X msg 922 177 10.77;
#X msg 999 177 21.54;
#X connect 0 0 23 0 empty;
#X connect 0 0 13 0 empty;
#X connect 1 0 0 0 empty;
#X connect 1 0 31 0 empty;
#X connect 1 0 32 0 empty;
#X connect 1 0 33 0 empty;
#X connect 1 0 35 0 empty;
#X connect 1 0 36 0 empty;
#X connect 2 0 1 0 empty;
#X connect 3 0 1 0 empty;
#X connect 4 0 1 0 empty;
#X connect 5 0 1 0 empty;
#X connect 8 0 36 1 empty;
#X connect 8 0 37 0 empty;
#X connect 9 0 8 0 empty;
#X connect 10 0 1 0 empty;
#X connect 11 0 9 0 empty;
#X connect 12 0 1 0 empty;
#X connect 17 0 16 0 empty;
#X connect 19 0 18 0 empty;
#X connect 21 0 20 0 empty;
#X connect 23 0 22 0 empty;
#X connect 23 0 38 0 empty;
#X connect 23 0 40 0 empty;
#X connect 25 0 24 0 empty;
#X connect 25 0 43 0 empty;
#X connect 28 0 27 0 empty;
#X connect 31 0 19 0 empty;
#X connect 31 0 30 0 empty;
#X connect 32 0 25 0 empty;
#X connect 32 0 14 0 empty;
#X connect 33 0 17 0 empty;
#X connect 33 0 15 0 empty;
#X connect 34 0 1 0 empty;
#X connect 35 0 21 0 empty;
#X connect 35 0 26 0 empty;
#X connect 36 0 28 0 empty;
#X connect 36 0 29 0 empty;
#X connect 37 0 0 1 empty;
#X connect 37 0 31 1 empty;
#X connect 37 0 32 1 empty;
#X connect 37 0 33 1 empty;
#X connect 37 0 35 1 empty;
#X connect 39 0 1 0 empty;
#X connect 41 0 40 0 empty;
#X connect 42 0 40 0 empty;
#X connect 44 0 43 0 empty;
#X connect 45 0 43 0 empty;
#X connect 46 0 1 0 empty;
#X connect 47 0 1 0 empty;
#X connect 48 0 1 0 empty;
