#N canvas 855 583 241 181 10;
#X obj 132 31 inlet~;
#X obj 27 31 inlet~;
#X obj 27 113 outlet~;
#N canvas 1 558 450 300 @hv_obj 1;
#X obj 167 31 inlet~;
#X obj 71 31 inlet~;
#X obj 23 202 outlet~;
#X obj 71 128 *~;
#X obj 23 169 -~;
#X obj 23 129 sig~ 1;
#X obj 71 79 hv.gte~;
#X obj 127 78 hv.lte~;
#X connect 0 0 6 1;
#X connect 0 0 7 1;
#X connect 1 0 6 0;
#X connect 1 0 7 0;
#X connect 3 0 4 1;
#X connect 4 0 2 0;
#X connect 5 0 4 0;
#X connect 6 0 3 0;
#X connect 7 0 3 1;
#X restore 27 72 pd @hv_obj __neq~f;
#X connect 0 0 3 1;
#X connect 1 0 3 0;
#X connect 3 0 2 0;
