#N canvas 1159 431 431 295 10;
#X obj 37 17 inlet;
#X obj 94 121 unpack f f f;
#X obj 94 72 t a b;
#X msg 112 96 0;
#X text 145 97 Default to zero delay if 2 args supplied;
#X obj 37 208 line~;
#X obj 37 230 outlet~;
#X obj 37 39 route stop;
#X msg 37 131 stop;
#X obj 37 61 t b b;
#X msg 50 99 clear;
#N canvas 274 138 360 214 dbl-pipe 1;
#X obj 29 19 inlet;
#X obj 137 19 inlet;
#X obj 228 19 inlet;
#X obj 29 141 pipe 0;
#X obj 90 141 pipe 0;
#X obj 29 163 outlet;
#X obj 90 163 outlet;
#X obj 90 101 spigot;
#X msg 116 75 1;
#X msg 140 74 0;
#X obj 29 48 route clear;
#X obj 79 74 t f f;
#X obj 137 47 t b f;
#X obj 29 101 t a a;
#X msg 29 75 clear;
#X connect 0 0 10 0;
#X connect 1 0 12 0;
#X connect 2 0 3 1;
#X connect 2 0 4 1;
#X connect 3 0 5 0;
#X connect 3 0 8 0;
#X connect 4 0 6 0;
#X connect 7 0 4 0;
#X connect 8 0 7 1;
#X connect 9 0 7 1;
#X connect 10 0 14 0;
#X connect 10 1 11 0;
#X connect 11 0 3 0;
#X connect 11 1 7 0;
#X connect 12 0 9 0;
#X connect 12 1 4 0;
#X connect 13 0 3 0;
#X connect 13 1 4 0;
#X connect 14 0 13 0;
#X restore 94 149 pd dbl-pipe;
#X obj 94 173 pack f f;
#X connect 0 0 7 0;
#X connect 1 0 11 0;
#X connect 1 1 11 1;
#X connect 1 2 11 2;
#X connect 2 0 1 0;
#X connect 2 1 3 0;
#X connect 3 0 11 2;
#X connect 5 0 6 0;
#X connect 7 0 9 0;
#X connect 7 1 2 0;
#X connect 8 0 5 0;
#X connect 9 0 8 0;
#X connect 9 1 10 0;
#X connect 10 0 11 0;
#X connect 11 0 12 0;
#X connect 11 1 12 1;
#X connect 12 0 5 0;
