#N canvas 567 81 929 754 12;
#N canvas 0 22 253 235 1/Fs 0;
#X obj 55 77 samplerate~;
#X obj 55 57 loadbang;
#X msg 55 97 1 \$1;
#X obj 55 117 /;
#X obj 55 137 sig~;
#X obj 55 159 outlet~;
#X connect 0 0 2 0;
#X connect 1 0 0 0;
#X connect 2 0 3 0;
#X connect 3 0 4 0;
#X connect 4 0 5 0;
#X restore 181 179 pd 1/Fs;
#X obj 56 112 phasor~;
#X obj 163 214 *~;
#X text 243 178 dt = (frequency / samplerate);
#X text 469 56 Based on code from:, f 20;
#X obj 56 439 *~ 4;
#X obj 56 346 rpole~;
#X obj 56 312 *~;
#X text 200 335 y[n] = x[n] * dt + (1 - dt) * y[n-1];
#X obj 95 311 expr~ 1 - $v1;
#X text 200 310 leaky integrator;
#X text 99 439 normalize volume;
#X obj 56 60 inlet~ (signal) freq;
#X obj 56 486 outlet~ (signal) bandlimited triangle;
#X text 470 101 http://www.kvraudio.com/forum/viewtopic.php?t=375517, f 54;
#X text 469 125 ported and modified for Pd by Timo Hoogland \, www.timohoogland.com, f 68;
#X text 470 79 https://www.martin-finke.de/articles/audio-plugins-018-polyblep-oscillator/, f 77;
#N canvas 18 113 690 746 square 0;
#X text 314 156 dt = (frequency / samplerate), f 30;
#X obj 54 314 +~;
#N canvas 179 213 220 222 saw 0;
#X obj 62 119 -~ 1;
#X obj 62 141 outlet~;
#X obj 62 73 inlet~;
#X obj 62 97 +~;
#X connect 0 0 1 0;
#X connect 2 0 3 0;
#X connect 2 0 3 1;
#X connect 3 0 0 0;
#X restore 54 274 pd saw;
#X obj 201 184 +~;
#X obj 201 210 wrap~;
#X obj 54 375 -~;
#X obj 196 304 +~;
#N canvas 0 22 220 222 saw 0;
#X obj 62 119 -~ 1;
#X obj 62 141 outlet~;
#X obj 62 73 inlet~;
#X obj 62 97 +~;
#X connect 0 0 1 0;
#X connect 2 0 3 0;
#X connect 2 0 3 1;
#X connect 3 0 0 0;
#X restore 196 274 pd saw;
#X obj 54 435 -~ 1;
#X obj 54 405 +~;
#X obj 260 274 polyblep;
#X obj 114 274 polyblep;
#X obj 349 274 +~;
#X obj 218 141 samphold~;
#X obj 52 82 inlet~;
#X obj 315 181 inlet~;
#X obj 218 85 inlet~;
#X text 50 58 phasor~;
#X text 217 59 pulse width;
#X obj 53 478 outlet~;
#X text 460 56 based on: hv.osc~ square;
#X connect 1 0 5 0;
#X connect 2 0 1 0;
#X connect 3 0 4 0;
#X connect 4 0 7 0;
#X connect 4 0 10 0;
#X connect 5 0 9 0;
#X connect 6 0 5 1;
#X connect 7 0 6 0;
#X connect 8 0 19 0;
#X connect 9 0 8 0;
#X connect 10 0 6 1;
#X connect 11 0 1 1;
#X connect 12 0 9 1;
#X connect 13 0 3 1;
#X connect 13 0 12 1;
#X connect 13 0 12 0;
#X connect 14 0 2 0;
#X connect 14 0 11 0;
#X connect 14 0 3 0;
#X connect 14 0 13 1;
#X connect 15 0 11 1;
#X connect 15 0 10 1;
#X connect 16 0 13 0;
#X restore 56 235 pd square;
#X obj 219 60 inlet (float) pulse width;
#X obj 56 397 hip~ 25;
#X text 121 398 filter out DC offset (when using pulse width);
#X obj 219 111 sig~ 0.5;
#X connect 0 0 2 1;
#X connect 1 0 17 0;
#X connect 2 0 17 2;
#X connect 2 0 7 1;
#X connect 2 0 9 0;
#X connect 5 0 13 0;
#X connect 6 0 19 0;
#X connect 7 0 6 0;
#X connect 9 0 6 1;
#X connect 12 0 2 0;
#X connect 12 0 1 0;
#X connect 17 0 7 0;
#X connect 18 0 21 0;
#X connect 19 0 5 0;
#X connect 21 0 17 1;
