#N canvas 321 242 929 621 12;
#N canvas 0 22 253 235 1/Fs 0;
#X obj 55 77 samplerate~;
#X obj 55 57 loadbang;
#X msg 55 97 1 \$1;
#X obj 55 117 /;
#X obj 55 137 sig~;
#X obj 55 159 outlet~;
#X connect 0 0 2 0;
#X connect 1 0 0 0;
#X connect 2 0 3 0;
#X connect 3 0 4 0;
#X connect 4 0 5 0;
#X restore 352 90 pd 1/Fs;
#X obj 56 126 phasor~;
#X obj 334 125 *~;
#X text 377 124 dt = (frequency / samplerate);
#X obj 262 210 +~ 0.5;
#X obj 262 241 expr~ $v1 - int($v1);
#X text 617 56 Based on code from:, f 20;
#X obj 56 241 expr~ if($v1 > 0.5 \, 1 \, -1);
#X obj 56 289 -~;
#X obj 56 324 +~;
#X obj 56 484 *~ 4;
#X obj 56 432 rpole~;
#X obj 56 398 *~;
#X text 197 422 y[n] = x[n] * dt + (1 - dt) * y[n-1];
#X obj 101 398 expr~ 1 - $v1;
#X text 197 397 leaky integrator;
#X text 101 483 normalize volume;
#X obj 56 60 inlet~ (signal) freq;
#X obj 56 540 outlet~ (signal) bandlimited triangle;
#X text 618 101 http://www.kvraudio.com/forum/viewtopic.php?t=375517, f 54;
#X text 617 125 ported and modified for Pd by Timo Hoogland \, www.timohoogland.com, f 68;
#X text 618 79 https://www.martin-finke.de/articles/audio-plugins-018-polyblep-oscillator/, f 77;
#X obj 225 60 inlet (float) phase;
#N canvas 452 113 1018 615 polyBlep 0;
#X obj 59 196 expr~ $v1 < $v2;
#X obj 109 266 expr~ $v1+$v1 - $v1*$v1 - 1;
#X text 446 233 t = t / dt;
#X text 446 265 t+t - t*t - 1;
#X text 446 195 discontinuities between 0 & 1;
#X text 446 168 t - t^2 / 2 + 1/2 for 0 < t <= 1;
#X obj 171 338 expr~ $v1 > (1 - $v2);
#X text 446 308 t^2 / 2 + t + 1/2 for -1 <= t <= 0;
#X text 446 337 discontinuities between -1 & 0;
#X text 445 371 t = (t - 1) / dt;
#X text 445 401 t*t + t+t + 1;
#X obj 210 435 expr~ $v1*$v1 + $v1+$v1 + 1;
#X text 350 195 t < dt;
#X obj 59 308 *~;
#X text 324 337 t > (1 - dt);
#X obj 171 476 *~;
#X obj 59 515 +~;
#X obj 148 55 inlet~;
#X obj 315 55 inlet~;
#X obj 59 549 outlet~;
#X text 369 54 dt;
#X text 202 54 phase;
#X text 446 54 Based on code from:;
#X text 446 78 https://www.martin-finke.de/articles/audio-plugins-018-polyblep-oscillator/, f 78;
#X text 446 100 http://www.kvraudio.com/forum/viewtopic.php?t=375517, f 57;
#X text 446 122 ported and modified for Pd by Timo Hoogland \, www.timohoogland.com, f 68;
#X obj 109 234 /~;
#X obj 209 371 -~ 1;
#X obj 210 403 /~;
#X connect 0 0 13 0;
#X connect 1 0 13 1;
#X connect 6 0 15 0;
#X connect 11 0 15 1;
#X connect 13 0 16 0;
#X connect 15 0 16 1;
#X connect 16 0 19 0;
#X connect 17 0 0 0;
#X connect 17 0 6 0;
#X connect 17 0 26 0;
#X connect 17 0 27 0;
#X connect 18 0 0 1;
#X connect 18 0 6 1;
#X connect 18 0 26 1;
#X connect 18 0 28 1;
#X connect 26 0 1 0;
#X connect 27 0 28 0;
#X connect 28 0 11 0;
#X restore 98 207 pd polyBlep;
#N canvas 179 213 450 300 thru 0;
#X obj 36 36 inlet~;
#X obj 35 81 outlet~;
#X text 119 37 for routing patchcords;
#X connect 0 0 1 0;
#X restore 431 243 pd thru;
#N canvas 452 113 1018 615 polyBlep 0;
#X obj 59 196 expr~ $v1 < $v2;
#X obj 109 266 expr~ $v1+$v1 - $v1*$v1 - 1;
#X text 446 233 t = t / dt;
#X text 446 265 t+t - t*t - 1;
#X text 446 195 discontinuities between 0 & 1;
#X text 446 168 t - t^2 / 2 + 1/2 for 0 < t <= 1;
#X obj 171 338 expr~ $v1 > (1 - $v2);
#X text 446 308 t^2 / 2 + t + 1/2 for -1 <= t <= 0;
#X text 446 337 discontinuities between -1 & 0;
#X text 445 371 t = (t - 1) / dt;
#X text 445 401 t*t + t+t + 1;
#X obj 210 435 expr~ $v1*$v1 + $v1+$v1 + 1;
#X text 350 195 t < dt;
#X obj 59 308 *~;
#X text 324 337 t > (1 - dt);
#X obj 171 476 *~;
#X obj 59 515 +~;
#X obj 148 55 inlet~;
#X obj 315 55 inlet~;
#X obj 59 549 outlet~;
#X text 369 54 dt;
#X text 202 54 phase;
#X text 446 54 Based on code from:;
#X text 446 78 https://www.martin-finke.de/articles/audio-plugins-018-polyblep-oscillator/, f 78;
#X text 446 100 http://www.kvraudio.com/forum/viewtopic.php?t=375517, f 57;
#X text 446 122 ported and modified for Pd by Timo Hoogland \, www.timohoogland.com, f 68;
#X obj 109 234 /~;
#X obj 209 371 -~ 1;
#X obj 210 403 /~;
#X connect 0 0 13 0;
#X connect 1 0 13 1;
#X connect 6 0 15 0;
#X connect 11 0 15 1;
#X connect 13 0 16 0;
#X connect 15 0 16 1;
#X connect 16 0 19 0;
#X connect 17 0 0 0;
#X connect 17 0 6 0;
#X connect 17 0 26 0;
#X connect 17 0 27 0;
#X connect 18 0 0 1;
#X connect 18 0 6 1;
#X connect 18 0 26 1;
#X connect 18 0 28 1;
#X connect 26 0 1 0;
#X connect 27 0 28 0;
#X connect 28 0 11 0;
#X restore 261 272 pd polyBlep;
#X connect 0 0 2 1;
#X connect 1 0 4 0;
#X connect 1 0 7 0;
#X connect 1 0 23 0;
#X connect 2 0 23 1;
#X connect 2 0 24 0;
#X connect 2 0 25 1;
#X connect 4 0 5 0;
#X connect 5 0 25 0;
#X connect 7 0 8 0;
#X connect 8 0 9 0;
#X connect 9 0 12 0;
#X connect 10 0 18 0;
#X connect 11 0 10 0;
#X connect 12 0 11 0;
#X connect 14 0 11 1;
#X connect 17 0 2 0;
#X connect 17 0 1 0;
#X connect 22 0 1 1;
#X connect 23 0 8 1;
#X connect 24 0 12 1;
#X connect 24 0 14 0;
#X connect 25 0 9 1;
