#N canvas 567 81 929 754 12;
#N canvas 0 22 253 235 1/Fs 0;
#X obj 55 77 samplerate~;
#X obj 55 57 loadbang;
#X msg 55 97 1 \$1;
#X obj 55 117 /;
#X obj 55 137 sig~;
#X obj 55 159 outlet~;
#X connect 0 0 2 0;
#X connect 1 0 0 0;
#X connect 2 0 3 0;
#X connect 3 0 4 0;
#X connect 4 0 5 0;
#X restore 164 182 pd 1/Fs;
#X obj 56 112 phasor~;
#X obj 146 217 *~;
#X text 226 181 dt = (frequency / samplerate);
#X text 617 56 Based on code from:, f 20;
#X obj 56 485 *~ 4;
#X obj 56 346 rpole~;
#X obj 56 312 *~;
#X text 228 335 y[n] = x[n] * dt + (1 - dt) * y[n-1];
#X obj 95 311 expr~ 1 - $v1;
#X text 228 310 leaky integrator;
#X text 94 485 normalize volume;
#X obj 56 60 inlet~ (signal) freq;
#X obj 56 532 outlet~ (signal) bandlimited triangle;
#X text 618 101 http://www.kvraudio.com/forum/viewtopic.php?t=375517, f 54;
#X text 617 125 ported and modified for Pd by Timo Hoogland \, www.timohoogland.com, f 68;
#X text 618 79 https://www.martin-finke.de/articles/audio-plugins-018-polyblep-oscillator/, f 77;
#X obj 824 252 +~ 0.5;
#X obj 824 283 expr~ $v1 - int($v1);
#X obj 618 283 expr~ if($v1 > 0.5 \, 1 \, -1);
#X obj 618 331 -~;
#X obj 618 366 +~;
#N canvas 452 113 1018 615 polyBlep 0;
#X obj 59 196 expr~ $v1 < $v2;
#X obj 109 266 expr~ $v1+$v1 - $v1*$v1 - 1;
#X text 446 233 t = t / dt;
#X text 446 265 t+t - t*t - 1;
#X text 446 195 discontinuities between 0 & 1;
#X text 446 168 t - t^2 / 2 + 1/2 for 0 < t <= 1;
#X obj 171 338 expr~ $v1 > (1 - $v2);
#X text 446 308 t^2 / 2 + t + 1/2 for -1 <= t <= 0;
#X text 446 337 discontinuities between -1 & 0;
#X text 445 371 t = (t - 1) / dt;
#X text 445 401 t*t + t+t + 1;
#X obj 210 435 expr~ $v1*$v1 + $v1+$v1 + 1;
#X text 350 195 t < dt;
#X obj 59 308 *~;
#X text 324 337 t > (1 - dt);
#X obj 171 476 *~;
#X obj 59 515 +~;
#X obj 148 55 inlet~;
#X obj 315 55 inlet~;
#X obj 59 549 outlet~;
#X text 369 54 dt;
#X text 202 54 phase;
#X text 446 54 Based on code from:;
#X text 446 78 https://www.martin-finke.de/articles/audio-plugins-018-polyblep-oscillator/, f 78;
#X text 446 100 http://www.kvraudio.com/forum/viewtopic.php?t=375517, f 57;
#X text 446 122 ported and modified for Pd by Timo Hoogland \, www.timohoogland.com, f 68;
#X obj 109 234 /~;
#X obj 209 371 -~ 1;
#X obj 210 403 /~;
#X connect 0 0 13 0;
#X connect 1 0 13 1;
#X connect 6 0 15 0;
#X connect 11 0 15 1;
#X connect 13 0 16 0;
#X connect 15 0 16 1;
#X connect 16 0 19 0;
#X connect 17 0 0 0;
#X connect 17 0 6 0;
#X connect 17 0 26 0;
#X connect 17 0 27 0;
#X connect 18 0 0 1;
#X connect 18 0 6 1;
#X connect 18 0 26 1;
#X connect 18 0 28 1;
#X connect 26 0 1 0;
#X connect 27 0 28 0;
#X connect 28 0 11 0;
#X restore 660 249 pd polyBlep;
#N canvas 179 213 450 300 thru 0;
#X obj 36 36 inlet~;
#X obj 35 81 outlet~;
#X text 119 37 for routing patchcords;
#X connect 0 0 1 0;
#X restore 993 285 pd thru;
#N canvas 452 113 1018 615 polyBlep 0;
#X obj 59 196 expr~ $v1 < $v2;
#X obj 109 266 expr~ $v1+$v1 - $v1*$v1 - 1;
#X text 446 233 t = t / dt;
#X text 446 265 t+t - t*t - 1;
#X text 446 195 discontinuities between 0 & 1;
#X text 446 168 t - t^2 / 2 + 1/2 for 0 < t <= 1;
#X obj 171 338 expr~ $v1 > (1 - $v2);
#X text 446 308 t^2 / 2 + t + 1/2 for -1 <= t <= 0;
#X text 446 337 discontinuities between -1 & 0;
#X text 445 371 t = (t - 1) / dt;
#X text 445 401 t*t + t+t + 1;
#X obj 210 435 expr~ $v1*$v1 + $v1+$v1 + 1;
#X text 350 195 t < dt;
#X obj 59 308 *~;
#X text 324 337 t > (1 - dt);
#X obj 171 476 *~;
#X obj 59 515 +~;
#X obj 148 55 inlet~;
#X obj 315 55 inlet~;
#X obj 59 549 outlet~;
#X text 369 54 dt;
#X text 202 54 phase;
#X text 446 54 Based on code from:;
#X text 446 78 https://www.martin-finke.de/articles/audio-plugins-018-polyblep-oscillator/, f 78;
#X text 446 100 http://www.kvraudio.com/forum/viewtopic.php?t=375517, f 57;
#X text 446 122 ported and modified for Pd by Timo Hoogland \, www.timohoogland.com, f 68;
#X obj 109 234 /~;
#X obj 209 371 -~ 1;
#X obj 210 403 /~;
#X connect 0 0 13 0;
#X connect 1 0 13 1;
#X connect 6 0 15 0;
#X connect 11 0 15 1;
#X connect 13 0 16 0;
#X connect 15 0 16 1;
#X connect 16 0 19 0;
#X connect 17 0 0 0;
#X connect 17 0 6 0;
#X connect 17 0 26 0;
#X connect 17 0 27 0;
#X connect 18 0 0 1;
#X connect 18 0 6 1;
#X connect 18 0 26 1;
#X connect 18 0 28 1;
#X connect 26 0 1 0;
#X connect 27 0 28 0;
#X connect 28 0 11 0;
#X restore 823 314 pd polyBlep;
#N canvas 18 113 690 746 square 0;
#X text 314 156 dt = (frequency / samplerate), f 30;
#X obj 54 314 +~;
#N canvas 179 213 220 222 saw 0;
#X obj 62 119 -~ 1;
#X obj 62 141 outlet~;
#X obj 62 73 inlet~;
#X obj 62 97 +~;
#X connect 0 0 1 0;
#X connect 2 0 3 0;
#X connect 2 0 3 1;
#X connect 3 0 0 0;
#X restore 54 274 pd saw;
#X obj 201 184 +~;
#X obj 201 210 wrap~;
#X obj 54 375 -~;
#X obj 196 304 +~;
#N canvas 0 22 220 222 saw 0;
#X obj 62 119 -~ 1;
#X obj 62 141 outlet~;
#X obj 62 73 inlet~;
#X obj 62 97 +~;
#X connect 0 0 1 0;
#X connect 2 0 3 0;
#X connect 2 0 3 1;
#X connect 3 0 0 0;
#X restore 196 274 pd saw;
#X obj 54 435 -~ 1;
#X obj 54 405 +~;
#X obj 260 274 polyblep;
#X obj 114 274 polyblep;
#X obj 349 274 +~;
#X obj 218 141 samphold~;
#X obj 52 82 inlet~;
#X obj 315 181 inlet~;
#X obj 218 85 inlet~;
#X text 50 58 phasor~;
#X text 217 59 pulse width;
#X obj 53 478 outlet~;
#X text 460 56 based on: hv.osc~ square;
#X connect 1 0 5 0;
#X connect 2 0 1 0;
#X connect 3 0 4 0;
#X connect 4 0 7 0;
#X connect 4 0 10 0;
#X connect 5 0 9 0;
#X connect 6 0 5 1;
#X connect 7 0 6 0;
#X connect 8 0 19 0;
#X connect 9 0 8 0;
#X connect 10 0 6 1;
#X connect 11 0 1 1;
#X connect 12 0 9 1;
#X connect 13 0 3 1;
#X connect 13 0 12 1;
#X connect 13 0 12 0;
#X connect 14 0 2 0;
#X connect 14 0 11 0;
#X connect 14 0 3 0;
#X connect 14 0 13 1;
#X connect 15 0 11 1;
#X connect 15 0 10 1;
#X connect 16 0 13 0;
#X restore 56 245 pd square;
#X obj 220 60 inlet (float) pulse width;
#X obj 220 381 -~ 0.5;
#X obj 56 440 +~;
#X obj 220 407 *~ -2;
#X text 265 406 compensate DC offset (when using pulse width);
#X msg 219 107 \$1 10;
#X msg 274 111 0.5;
#X obj 219 142 line~;
#X obj 274 87 loadbang;
#X connect 0 0 2 1;
#X connect 1 0 25 0;
#X connect 2 0 25 2;
#X connect 2 0 7 1;
#X connect 2 0 9 0;
#X connect 5 0 13 0;
#X connect 6 0 28 0;
#X connect 7 0 6 0;
#X connect 9 0 6 1;
#X connect 12 0 2 0;
#X connect 12 0 1 0;
#X connect 17 0 18 0;
#X connect 18 0 24 0;
#X connect 19 0 20 0;
#X connect 20 0 21 0;
#X connect 22 0 20 1;
#X connect 24 0 21 1;
#X connect 25 0 7 0;
#X connect 26 0 31 0;
#X connect 27 0 29 0;
#X connect 28 0 5 0;
#X connect 29 0 28 1;
#X connect 31 0 33 0;
#X connect 32 0 33 0;
#X connect 33 0 25 1;
#X connect 33 0 27 0;
#X connect 34 0 32 0;
