#N canvas 827 239 527 327 12;
#X obj 39 51 clip~ 20 20000;
#X obj 291 51 clip~ 0.1 100;
#X obj 39 265 sig~ 1;
#X obj 39 325 /~;
#X obj 39 423 *~;
#X obj 209 423 *~;
#X obj 269 423 *~;
#X obj 280 299 +~ 1;
#X obj 329 423 *~;
#X obj 339 299 *~ -2;
#X obj 404 299 sig~ 1;
#X obj 404 321 -~;
#X obj 392 423 *~;
#X obj 84 270 +~ 1;
#X text 375 150 w0 = 2*pi*f0*Fs;
#X text 375 170 alpha = sin(w0)/(2*Q);
#X text 446 45 (b0/a0) + (b1/a0)*z^(-1) + (b2/a0)*z^(-2);
#X text 404 60 H(z) = -----------------------------------------;
#X text 446 75 1 + (a1/a0)*z^(-1) + (a2/a0)*z^(-2);
#X text 404 20 Audio-Cookbook:;
#X text 404 100 http://musicdsp.org/files/Audio-EQ-Cookbook.txt;
#X obj 39 29 inlet~;
#X obj 291 29 inlet~;
#X obj 39 86 /~ 44100;
#X obj 149 29 loadbang;
#X obj 149 50 samplerate~;
#X text 39 465 (O1) b0;
#X text 209 465 (O2) b1;
#X text 269 465 (O3) b2;
#X text 329 465 (O4) a1;
#X text 392 465 (O5) a2;
#X obj 39 445 outlet~;
#X obj 209 445 outlet~;
#X obj 269 445 outlet~;
#X obj 329 445 outlet~;
#X obj 392 445 outlet~;
#X obj 291 86 *~ 2;
#X obj 280 186 /~;
#X obj 39 199 cos~;
#X obj 149 151 cos~;
#X obj 148 125 -~ 0.25;
#X text 553 246 b0 = 1 - alpha;
#X text 553 186 a0 = 1 + alpha;
#X text 553 226 a2 = 1 - alpha;
#X text 553 206 a1 = -2*cos(w0);
#X text 553 266 b1 = -2*cos(w0);
#X text 553 286 b2 = 1 + alpha;
#X text 542 166 ALL:;
#X obj 137 299 sig~ 1;
#X obj 137 325 -~;
#X obj 219 299 *~ -2;
#X connect 0 0 23 0;
#X connect 1 0 36 0;
#X connect 2 0 3 0;
#X connect 3 0 4 0;
#X connect 3 0 5 0;
#X connect 3 0 6 0;
#X connect 3 0 8 0;
#X connect 3 0 12 0;
#X connect 4 0 31 0;
#X connect 5 0 32 0;
#X connect 6 0 33 0;
#X connect 7 0 6 1;
#X connect 8 0 34 0;
#X connect 9 0 8 1;
#X connect 10 0 11 0;
#X connect 11 0 12 1;
#X connect 12 0 35 0;
#X connect 13 0 3 1;
#X connect 21 0 0 0;
#X connect 22 0 1 0;
#X connect 23 0 38 0;
#X connect 23 0 40 0;
#X connect 24 0 25 0;
#X connect 25 0 23 1;
#X connect 36 0 37 1;
#X connect 37 0 11 1;
#X connect 37 0 13 0;
#X connect 37 0 7 0;
#X connect 37 0 49 1;
#X connect 38 0 9 0;
#X connect 38 0 50 0;
#X connect 39 0 37 0;
#X connect 40 0 39 0;
#X connect 48 0 49 0;
#X connect 49 0 4 1;
#X connect 50 0 5 1;
