#N canvas 1309 219 590 745 10;
#X obj 381 166 sig~ 1;
#X obj 381 187 /~;
#X obj 370 314 *~;
#X obj 370 340 *~ 0.5;
#X obj 47 479 sig~ 1;
#X obj 47 541 /~;
#X obj 47 683 *~;
#X obj 139 541 *~ 0.5;
#X obj 207 683 *~;
#X obj 267 683 *~;
#X obj 327 683 *~;
#X obj 340 543 *~ -2;
#X obj 402 479 sig~ 1;
#X obj 402 541 -~;
#X obj 387 683 *~;
#X obj 92 504 +~ 1;
#X text 475 236 w0 = 2*pi*f0*Fs;
#X text 475 256 alpha = sin(w0)/(2*Q);
#X text 639 311 a2 = 1 - alpha;
#X text 639 291 a1 = -2*cos(w0);
#X text 504 146 H(z) = -----------------------------------------;
#X text 504 106 Audio-Cookbook:;
#X obj 139 477 sig~ 1;
#X obj 139 519 -~;
#X obj 218 521 sig~ 1;
#X obj 218 543 -~;
#X obj 281 543 *~ 0.5;
#X obj 281 479 sig~ 1;
#X obj 281 521 -~;
#X text 546 161 1 + (a1/a0)*z^(-1) + (a2/a0)*z^(-2);
#X text 546 131 (b0/a0) + (b1/a0)*z^(-1) + (b2/a0)*z^(-2);
#X text 639 271 a0 = 1 + alpha;
#X text 639 331 b0 = (1 - cos(w0))/2;
#X text 639 351 b1 = (1 - cos(w0));
#X text 639 371 b2 = (1 - cos(w0))/2;
#X text 629 251 LPF:;
#X obj 47 198 /~ 44100;
#X obj 152 118 loadbang;
#X obj 152 139 samplerate~;
#X obj 396 145 max~ 0.1;
#X obj 47 118 inlet~;
#X obj 396 124 inlet~;
#X obj 47 704 outlet~;
#X obj 207 704 outlet~;
#X obj 267 704 outlet~;
#X obj 327 704 outlet~;
#X obj 387 704 outlet~;
#X text 504 186 https://www.musicdsp.org/en/latest/Filters/197-rbj-audio-eq-cookbook.html;
#X text 47 724 (O1) b0;
#X text 207 724 (O2) b1;
#X text 267 724 (O3) b2;
#X text 327 724 (O4) a1;
#X text 387 724 (O5) a2;
#X text 396 104 (I2) Q factor;
#X text 47 98 (I1) Frequency;
#X obj 47 139 clip~ 0 20000;
#X obj 47 339 cos~;
#X obj 230 272 cos~;
#X obj 230 246 -~ 0.25;
#X connect 0 0 1 0;
#X connect 1 0 2 1;
#X connect 2 0 3 0;
#X connect 3 0 13 1;
#X connect 3 0 15 0;
#X connect 4 0 5 0;
#X connect 5 0 6 0;
#X connect 5 0 8 0;
#X connect 5 0 9 0;
#X connect 5 0 10 0;
#X connect 5 0 14 0;
#X connect 6 0 42 0;
#X connect 7 0 6 1;
#X connect 8 0 43 0;
#X connect 9 0 44 0;
#X connect 10 0 45 0;
#X connect 11 0 10 1;
#X connect 12 0 13 0;
#X connect 13 0 14 1;
#X connect 14 0 46 0;
#X connect 15 0 5 1;
#X connect 22 0 23 0;
#X connect 23 0 7 0;
#X connect 24 0 25 0;
#X connect 25 0 8 1;
#X connect 26 0 9 1;
#X connect 27 0 28 0;
#X connect 28 0 26 0;
#X connect 36 0 58 0;
#X connect 36 0 56 0;
#X connect 37 0 38 0;
#X connect 38 0 36 1;
#X connect 39 0 1 1;
#X connect 40 0 55 0;
#X connect 41 0 39 0;
#X connect 55 0 36 0;
#X connect 56 0 23 1;
#X connect 56 0 25 1;
#X connect 56 0 28 1;
#X connect 56 0 11 0;
#X connect 57 0 2 0;
#X connect 58 0 57 0;
