#N canvas 633 22 635 610 10;
#X text 19 10 Notch filter with Q - biquad filter coefficient generator;
#X obj 235 99 inlet~ q;
#X obj 235 121 clip~ 0.1 100;
#X obj 224 153 sig~ 1;
#X obj 224 175 /~;
#X obj 224 286 *~;
#X obj 224 308 *~ 0.5;
#X obj 26 417 sig~ 1;
#X obj 26 464 /~;
#X obj 26 567 outlet~ b0;
#X obj 148 520 *~;
#X obj 148 567 outlet~ b1;
#X obj 218 567 outlet~ b2;
#X obj 288 520 *~;
#X obj 288 567 outlet~ a1;
#X obj 358 520 *~;
#X obj 358 567 outlet~ a2;
#X obj 104 418 +~ 1;
#X text 304 310 w0 = 2*pi*f0*Fs;
#X text 304 330 alpha = sin(w0)/(2*Q);
#X text 468 385 a2 = 1 - alpha;
#X text 468 365 a1 = -2*cos(w0);
#X text 333 120 H(z) = -----------------------------------------;
#X text 333 80 Audio-Cookbook:;
#X text 333 160 http://musicdsp.org/files/Audio-EQ-Cookbook.txt;
#X text 375 135 1 + (a1/a0)*z^(-1) + (a2/a0)*z^(-2);
#X text 375 105 (b0/a0) + (b1/a0)*z^(-1) + (b2/a0)*z^(-2);
#X text 468 345 a0 = 1 + alpha;
#X text 468 405 b0 = (1 - cos(w0))/2;
#X text 468 425 b1 = (1 - cos(w0));
#X text 468 445 b2 = (1 - cos(w0))/2;
#X text 458 325 LPF:;
#X obj 163 418 *~ -2;
#X obj 373 397 sig~ 1;
#X obj 373 445 -~;
#X obj 26 154 /~ 44100;
#X obj 26 108 clip~ 20 20000;
#X obj 119 69 loadbang;
#X obj 119 90 samplerate~;
#X obj 26 62 inlet~;
#X obj 126 237 cos~;
#X obj 126 211 -~ 0.25;
#X obj 26 282 cos~;
#X connect 1 0 2 0;
#X connect 2 0 4 1;
#X connect 3 0 4 0;
#X connect 4 0 5 0;
#X connect 5 0 6 0;
#X connect 6 0 34 1;
#X connect 6 0 17 0;
#X connect 7 0 8 0;
#X connect 8 0 10 0;
#X connect 8 0 13 0;
#X connect 8 0 15 0;
#X connect 8 0 12 0;
#X connect 8 0 9 0;
#X connect 10 0 11 0;
#X connect 13 0 14 0;
#X connect 15 0 16 0;
#X connect 17 0 8 1;
#X connect 32 0 10 1;
#X connect 32 0 13 1;
#X connect 33 0 34 0;
#X connect 34 0 15 1;
#X connect 35 0 41 0;
#X connect 35 0 42 0;
#X connect 36 0 35 0;
#X connect 37 0 38 0;
#X connect 38 0 35 1;
#X connect 39 0 36 0;
#X connect 40 0 5 1;
#X connect 41 0 40 0;
#X connect 42 0 32 0;
