#N canvas 827 239 527 327 12;
#X obj 215 416 metro;
#X obj 420 710 sig~;
#X obj 215 371 tgl 25 0 empty empty empty 17 7 0 10 #e4e4e4 #5a5a5a #5a5a5a 0 1;
#X obj 280 639 tgl 25 0 empty empty empty 17 7 0 10 #e4e4e4 #5a5a5a #5a5a5a 0 1;
#X obj 540 291 vsl 17 128 0 1 0 0 empty empty empty 0 -9 0 10 #e4e4e4 #5a5a5a #5a5a5a 0 1;
#X floatatom 660 440 8 0 0 0 - - - 12;
#X obj 507 571 delay;
#X obj 460 290 vsl 17 128 0.001 100 1 0 empty empty empty 0 -9 0 10 #e4e4e4 #5a5a5a #5a5a5a 0 1;
#X obj 460 470 int;
#X floatatom 460 490 9 0 0 0 - - - 10;
#X obj 460 450 /;
#X msg 460 430 1000, f 6;
#X obj 625 550 *;
#X obj 540 430 bng 12 250 50 0 empty empty empty 17 7 0 10 #e4e4e4 #5a5a5a #5a5a5a;
#X obj 660 480 int;
#X floatatom 660 520 7 0 0 0 - - - 12;
#X obj 660 460 * 100, f 6;
#X obj 660 500 / 100;
#X obj 564 561 int;
#X obj 215 330 loadbang;
#X obj 564 581 nbx 4 18 -1e+37 1e+37 0 0 empty empty empty 0 -8 0 10 #e4e4e4 #5a5a5a #5a5a5a 0 256;
#X text 718 479 round to useful precision;
#X text 363 337 frequency (Hz);
#X text 366 459 convert to ms;
#X text 241 570 offset switch by a proportionate number of ms, f 38;
#X obj 375 246 inlet frequency;
#X obj 535 246 inlet pulse width (0:1), f 19;
#X text 614 580 number of ms between \; on and off, f 20;
#X msg 310 344 0.5;
#X obj 403 362 nbx 4 18 -1e+37 1e+37 0 0 empty empty empty 0 -8 0 10 #e4e4e4 #5a5a5a #5a5a5a 0 256;
#X text 460 709 attach [oscope~] here to test;
#X text 211 278 preset pwm to square \; freq. to .5Hz \; turn on metro;
#X obj 571 362 nbx 4 18 -1e+37 1e+37 0 0 empty empty empty 0 -8 0 10 #e4e4e4 #5a5a5a #5a5a5a 0 256;
#X text 564 337 pwm 0.0:1.0, f 12;
#X obj 280 680 * 127;
#X obj 280 710 outlet pwm (0:127);
#X connect 0 0 6 0 32.................5A...rT...fd....KE...XH....;
#X connect 0 0 3 0 32.................nB...DD....p....AA...rL....;
#X connect 2 0 0 0 empty;
#X connect 3 0 34 0 32.................J....35+++uB....t9++++A....;
#X connect 4 0 5 0 32.................L....PG....C....zA...bA....;
#X connect 4 0 13 0 empty;
#X connect 4 0 32 0 48.................G....PA...vA....T....X7+++OI....F++++SB...Px++++;
#X connect 5 0 16 0 empty;
#X connect 6 0 3 0 32.................M....3w+++eC....d7+++CC....;
#X connect 7 0 11 0 32.................E....T....PA....E....j.....;
#X connect 7 0 29 0 48.................G....X+++++A....1++++e7+++uv++++G++++K7++++x++++;
#X connect 7 0 10 1 32.................D.....A....A....P....XB....;
#X connect 8 0 9 0 empty;
#X connect 9 0 12 0 32.................J....TJ...fB....kB...PA....;
#X connect 9 0 0 1 48.................J....7z+++uB....O8+++a3+++uG++++F9+++6w++++i++++;
#X connect 10 0 8 0 32.................D..........A.........f.....;
#X connect 11 0 10 0 32.................C.........v..........X.....;
#X connect 12 0 18 0 48.................G....H9++++A....h++++K++++Ow++++x++++S7+++O9++++;
#X connect 13 0 12 0 32.................H....rE....B....aA...vF....;
#X connect 14 0 17 0 empty;
#X connect 15 0 12 1 32.................E....j9+++eA....o++++m.....;
#X connect 16 0 14 0 empty;
#X connect 17 0 15 0 empty;
#X connect 18 0 20 0 empty;
#X connect 19 0 2 0 empty;
#X connect 19 0 28 0 48.................J....PD...fB....DA...T+++++W....0+++++E...v9++++;
#X connect 20 0 6 1 48.................D....z9+++OA....s++++e8+++O2++++W++++y8+++e4++++;
#X connect 25 0 7 0 32.................H.....E....B....PA...fA....;
#X connect 26 0 4 0 empty;
#X connect 28 0 4 0 48.................F....zA...fA....c....r5+++e3....q9+++GN....t++++;
#X connect 28 0 7 0 48.................K....DB...vB....g....75+++ej....u9+++GI...vs++++;
#X connect 34 0 1 0 32.................E.....E...PA....PA...n.....;
#X connect 34 0 35 0 32.................M.........PC.........n.....;
