#N canvas 827 239 527 327 12;
#X obj 93 67 inlet;
#X obj 192 65 inlet;
#X obj 106 361 outlet;
#X obj 217 151 loadbang;
#X obj 105 225 snapshot~;
#X obj 106 284 / 2;
#X obj 106 255 + 1;
#X obj 106 317 clip 0 1;
#X obj 102 155 hv.osc~ square;
#X obj 102 127 sig~;
#X obj 215 185 metro;
#X connect 0 0 9 0 empty;
#X connect 1 0 8 1 empty;
#X connect 3 0 10 0 empty;
#X connect 4 0 6 0 empty;
#X connect 5 0 7 0 empty;
#X connect 6 0 5 0 empty;
#X connect 7 0 2 0 empty;
#X connect 8 0 4 0 empty;
#X connect 9 0 8 0 empty;
#X connect 10 0 4 0 empty;
