#N canvas 827 239 527 327 12;
#X obj 102 68 inlet;
#X obj 218 63 inlet;
#X obj 103 361 outlet;
#X obj 239 151 loadbang;
#X obj 103 225 snapshot~;
#X obj 103 284 / 2;
#X obj 103 255 + 1;
#X obj 103 317 clip 0 1;
#X obj 102 127 sig~;
#X obj 237 185 metro 1;
#X obj 102 155 ../hv.osc~ square;
#X connect 0 0 8 0;
#X connect 1 0 10 1;
#X connect 3 0 9 0;
#X connect 4 0 6 0;
#X connect 5 0 7 0;
#X connect 6 0 5 0;
#X connect 7 0 2 0;
#X connect 8 0 10 0;
#X connect 9 0 4 0;
#X connect 10 0 4 0;
