#N canvas 827 239 527 327 12;
#X obj 17 21 inlet;
#X obj 106 21 inlet;
#X obj 17 287 outlet;
#X obj 17 162 snapshot~;
#X obj 17 221 / 2;
#X obj 17 192 + 1;
#X obj 17 254 clip 0 1;
#X obj 17 54 sig~;
#X obj 17 82 ../hv.osc~ square;
#X obj 106 110 bang~;
#X connect 0 0 7 0;
#X connect 1 0 8 1;
#X connect 3 0 5 0;
#X connect 4 0 6 0;
#X connect 5 0 4 0;
#X connect 6 0 2 0;
#X connect 7 0 8 0;
#X connect 8 0 3 0;
#X connect 9 0 3 0;
