#N canvas 827 239 527 327 12;
#X obj 184 113 inlet;
#X obj 283 111 inlet;
#X obj 184 198 sig~;
#X obj 185 236 phasor~;
#X obj 184 283 snapshot~;
#X obj 184 330 outlet;
#X obj 278 203 loadbang;
#X obj 278 236 metro;
#X connect 0 0 2 0 empty;
#X connect 1 0 3 1 empty;
#X connect 2 0 3 0 empty;
#X connect 3 0 4 0 empty;
#X connect 4 0 5 0 empty;
#X connect 6 0 7 0 empty;
#X connect 7 0 4 0 empty;
