#N canvas 827 239 192 251 12;
#X obj 30 29 inlet;
#X obj 112 29 inlet;
#X obj 30 64 sig~;
#X obj 30 102 phasor~;
#X obj 30 149 snapshot~;
#X obj 30 196 outlet;
#X obj 112 102 bang~;
#X connect 0 0 2 0;
#X connect 1 0 3 1;
#X connect 2 0 3 0;
#X connect 3 0 4 0;
#X connect 4 0 5 0;
#X connect 6 0 4 0;
