#N canvas 827 239 206 292 12;
#X obj 31 19 inlet;
#X obj 130 17 inlet;
#X obj 31 54 sig~;
#X obj 31 87 phasor~;
#X obj 31 139 snapshot~;
#X obj 31 247 outlet;
#X obj 31 176 * -1;
#X obj 31 211 + 1;
#X obj 130 87 bang~;
#X connect 0 0 2 0;
#X connect 1 0 3 1;
#X connect 2 0 3 0;
#X connect 3 0 4 0;
#X connect 4 0 6 0;
#X connect 6 0 7 0;
#X connect 7 0 5 0;
#X connect 8 0 4 0;
