#N canvas 827 239 527 327 12;
#X obj 106 69 inlet;
#X obj 205 67 inlet;
#X obj 106 154 sig~;
#X obj 107 192 phasor~;
#X obj 106 239 snapshot~;
#X obj 108 362 outlet;
#X obj 230 153 loadbang;
#X obj 107 280 * -1;
#X obj 108 315 + 1;
#X obj 228 187 metro 1;
#X connect 0 0 2 0;
#X connect 1 0 3 1;
#X connect 2 0 3 0;
#X connect 3 0 4 0;
#X connect 4 0 7 0;
#X connect 6 0 9 0;
#X connect 7 0 8 0;
#X connect 8 0 5 0;
#X connect 9 0 4 0;
