#N canvas 827 239 201 297 12;
#X obj 37 35 inlet;
#X obj 105 35 inlet;
#X obj 36 243 outlet;
#X obj 37 125 snapshot~;
#X obj 37 77 osc~ 0.1;
#X obj 37 170 + 1;
#X obj 36 211 / 2;
#X obj 124 77 bang~;
#X connect 0 0 4 0;
#X connect 1 0 4 1;
#X connect 3 0 5 0;
#X connect 4 0 3 0;
#X connect 5 0 6 0;
#X connect 6 0 2 0;
#X connect 7 0 3 0;
