#N canvas 827 239 527 327 12;
#X obj 120 141 inlet;
#X obj 207 143 inlet;
#X obj 119 449 outlet;
#X obj 122 334 snapshot~;
#X obj 120 233 osc~ 0.1;
#X obj 120 376 + 1;
#X obj 217 214 loadbang;
#X obj 119 417 / 2;
#X obj 215 255 metro;
#X connect 0 0 4 0 empty;
#X connect 1 0 4 1 empty;
#X connect 3 0 5 0 empty;
#X connect 4 0 3 0 empty;
#X connect 5 0 7 0 empty;
#X connect 6 0 8 0 empty;
#X connect 7 0 2 0 empty;
#X connect 8 0 3 0 empty;
