#N canvas 827 239 527 327 12;
#X obj 93 67 inlet;
#X obj 192 65 inlet;
#X obj 106 361 outlet;
#X obj 217 151 loadbang;
#X obj 105 225 snapshot~;
#X obj 106 284 / 2;
#X obj 106 255 + 1;
#X obj 102 127 osc~;
#X obj 102 155 *~ 10000;
#X obj 102 177 clip~ -1 1;
#X obj 106 317 clip 0 1;
#X obj 215 185 metro 1;
#X connect 0 0 7 0;
#X connect 1 0 7 1;
#X connect 3 0 11 0;
#X connect 4 0 6 0;
#X connect 5 0 10 0;
#X connect 6 0 5 0;
#X connect 7 0 8 0;
#X connect 8 0 9 0;
#X connect 9 0 4 0;
#X connect 10 0 2 0;
#X connect 11 0 4 0;
