#N canvas 827 239 527 327 12;
#X obj 69 54 inlet;
#X obj 133 54 inlet;
#X obj 69 128 sig~;
#X obj 70 166 phasor~;
#X obj 69 213 snapshot~;
#X obj 69 368 outlet;
#X obj 191 128 loadbang;
#X obj 69 256 * 2;
#X obj 69 285 - 1;
#X obj 69 327 abs;
#X obj 191 161 metro;
#X obj 133 128 + 0.5;
#X connect 0 0 2 0 empty;
#X connect 1 0 11 0 empty;
#X connect 2 0 3 0 empty;
#X connect 3 0 4 0 empty;
#X connect 4 0 7 0 empty;
#X connect 6 0 10 0 empty;
#X connect 7 0 8 0 empty;
#X connect 8 0 9 0 empty;
#X connect 9 0 5 0 empty;
#X connect 10 0 4 0 empty;
#X connect 11 0 3 1 empty;
