#N canvas 827 239 185 335 12;
#X obj 38 28 inlet;
#X obj 112 28 inlet;
#X obj 38 62 sig~;
#X obj 38 112 phasor~;
#X obj 37 159 snapshot~;
#X obj 37 298 outlet;
#X obj 37 202 * 2;
#X obj 37 231 - 1;
#X obj 37 264 abs;
#X obj 112 62 + 0.5;
#X obj 111 112 bang~;
#X connect 0 0 2 0;
#X connect 1 0 9 0;
#X connect 2 0 3 0;
#X connect 3 0 4 0;
#X connect 4 0 6 0;
#X connect 6 0 7 0;
#X connect 7 0 8 0;
#X connect 8 0 5 0;
#X connect 9 0 3 1;
#X connect 10 0 4 0;
