#N canvas 356 22 613 703 10;
#X obj 38 264 sig~ 1;
#X obj 38 332 /~;
#X obj 150 457 *~;
#X obj 290 457 *~;
#X obj 375 457 *~;
#X obj 389 347 *~ -2;
#X obj 458 315 sig~ 1;
#X obj 458 347 -~;
#X obj 445 457 *~;
#X text 389 165 w0 = 2*pi*f0*Fs;
#X text 389 185 alpha = sin(w0)/(2*Q);
#X text 418 75 H(z) = -----------------------------------------;
#X text 418 35 Audio-Cookbook:;
#X text 418 115 http://musicdsp.org/files/Audio-EQ-Cookbook.txt;
#X text 460 90 1 + (a1/a0)*z^(-1) + (a2/a0)*z^(-2);
#X text 460 60 (b0/a0) + (b1/a0)*z^(-1) + (b2/a0)*z^(-2);
#X obj 220 457 sig~ 0;
#X text 514 231 a0 = 1 + alpha;
#X text 514 311 b1 = 0;
#X text 514 271 a2 = 1 - alpha;
#X text 514 251 a1 = -2*cos(w0);
#X text 514 291 b0 = sin(w0)/2 = Q*alpha;
#X text 514 331 b2 = -sin(w0)/2 = -Q*alpha;
#X text 503 211 BPF: (constant skirt gain);
#X obj 163 347 *~ 0.5;
#X obj 303 347 *~ -0.5;
#X obj 88 272 +~ 1;
#X obj 320 58 max~ 0.1;
#X obj 38 99 *~ 6.28319;
#X obj 38 78 /~ 44100;
#X obj 38 57 clip~ 20 20000;
#X obj 154 36 loadbang;
#X obj 154 57 samplerate~;
#X obj 38 36 inlet~;
#X obj 320 36 inlet~;
#X text 220 499 b1;
#X text 290 499 b2;
#X text 375 499 a1;
#X text 445 499 a2;
#X obj 150 479 outlet~;
#X obj 220 479 outlet~;
#X obj 290 479 outlet~;
#X obj 375 479 outlet~;
#X obj 445 479 outlet~;
#X text 149 499 b0;
#X obj 38 206 cos~;
#X obj 163 179 cos~;
#X obj 306 232 /~;
#X obj 163 155 -~ 0.25;
#X obj 320 86 *~ 2;
#X connect 0 0 1 0;
#X connect 1 0 2 0;
#X connect 1 0 3 0;
#X connect 1 0 4 0;
#X connect 1 0 8 0;
#X connect 2 0 39 0;
#X connect 3 0 41 0;
#X connect 4 0 42 0;
#X connect 5 0 4 1;
#X connect 6 0 7 0;
#X connect 7 0 8 1;
#X connect 8 0 43 0;
#X connect 16 0 40 0;
#X connect 24 0 2 1;
#X connect 25 0 3 1;
#X connect 26 0 1 1;
#X connect 27 0 49 0;
#X connect 28 0 45 0;
#X connect 28 0 48 0;
#X connect 29 0 28 0;
#X connect 30 0 29 0;
#X connect 31 0 32 0;
#X connect 32 0 29 1;
#X connect 33 0 30 0;
#X connect 34 0 27 0;
#X connect 45 0 5 0;
#X connect 46 0 24 0;
#X connect 46 0 25 0;
#X connect 46 0 47 0;
#X connect 47 0 7 1;
#X connect 47 0 26 0;
#X connect 48 0 46 0;
#X connect 49 0 47 1;
