#N canvas 1909 289 613 760 10;
#X obj 290 57 clip~ 0.1 100;
#X obj 279 95 sig~ 1;
#X obj 279 123 /~;
#X obj 268 263 *~;
#X obj 268 287 *~ 0.5;
#X obj 28 403 sig~ 1;
#X obj 28 441 /~;
#X obj 28 547 *~;
#X obj 258 547 *~;
#X obj 318 547 *~;
#X obj 328 361 *~ -2;
#X obj 392 361 sig~ 1;
#X obj 392 403 -~;
#X obj 385 547 *~;
#X obj 108 403 +~ 1;
#X text 419 172 w0 = 2*pi*f0*Fs;
#X text 419 192 alpha = sin(w0)/(2*Q);
#X text 583 247 a2 = 1 - alpha;
#X text 583 227 a1 = -2*cos(w0);
#X text 448 82 H(z) = -----------------------------------------;
#X text 448 42 Audio-Cookbook:;
#X text 448 122 http://musicdsp.org/files/Audio-EQ-Cookbook.txt;
#X text 490 97 1 + (a1/a0)*z^(-1) + (a2/a0)*z^(-2);
#X text 490 67 (b0/a0) + (b1/a0)*z^(-1) + (b2/a0)*z^(-2);
#X text 583 207 a0 = 1 + alpha;
#X text 573 187 LPF:;
#X text 543 367 b0 = alpha;
#X text 543 387 b1 = 0;
#X text 543 407 b2 = -alpha;
#X obj 268 403 *~ -1;
#X obj 126 547 sig~ 0;
#X obj 290 31 inlet~;
#X obj 28 569 outlet~;
#X obj 126 569 outlet~;
#X obj 258 569 outlet~;
#X obj 318 569 outlet~;
#X obj 385 569 outlet~;
#X obj 32 57 clip~ 20 20000;
#X obj 32 31 inlet~;
#X obj 32 94 /~ 44100;
#X obj 168 31 loadbang;
#X obj 168 57 samplerate~;
#X text 28 589 (O1) b0;
#X text 126 589 (O2) b1;
#X text 258 589 (O3) b2;
#X text 318 589 (O4) a1;
#X text 385 589 (O5) a2;
#X obj 32 265 cos~;
#X obj 168 199 cos~;
#X obj 168 170 -~ 0.25;
#X connect 0 0 2 1;
#X connect 1 0 2 0;
#X connect 2 0 3 1;
#X connect 3 0 4 0;
#X connect 4 0 12 1;
#X connect 4 0 14 0;
#X connect 4 0 29 0;
#X connect 4 0 7 1;
#X connect 5 0 6 0;
#X connect 6 0 7 0;
#X connect 6 0 8 0;
#X connect 6 0 9 0;
#X connect 6 0 13 0;
#X connect 7 0 32 0;
#X connect 8 0 34 0;
#X connect 9 0 35 0;
#X connect 10 0 9 1;
#X connect 11 0 12 0;
#X connect 12 0 13 1;
#X connect 13 0 36 0;
#X connect 14 0 6 1;
#X connect 29 0 8 1;
#X connect 30 0 33 0;
#X connect 31 0 0 0;
#X connect 37 0 39 0;
#X connect 38 0 37 0;
#X connect 39 0 47 0;
#X connect 39 0 49 0;
#X connect 40 0 41 0;
#X connect 41 0 39 1;
#X connect 47 0 10 0;
#X connect 48 0 3 0;
#X connect 49 0 48 0;
