#N canvas 547 134 611 752 10;
#X obj 45 73 clip~ 20 20000;
#X obj 301 89 clip~ 0.1 100;
#X obj 45 287 sig~ 1;
#X obj 45 347 /~;
#X obj 45 485 *~;
#X obj 143 321 +~ 1;
#X obj 143 347 *~ 0.5;
#X obj 215 485 *~;
#X obj 230 317 +~ 1;
#X obj 230 343 *~ -1;
#X obj 275 485 *~;
#X obj 290 317 +~ 1;
#X obj 290 343 *~ 0.5;
#X obj 335 485 *~;
#X obj 350 317 *~ -2;
#X obj 410 321 sig~ 1;
#X obj 410 343 -~;
#X obj 395 485 *~;
#X obj 90 292 +~ 1;
#X text 381 172 w0 = 2*pi*f0*Fs;
#X text 381 192 alpha = sin(w0)/(2*Q);
#X text 545 207 a0 = 1 + alpha;
#X text 545 247 a2 = 1 - alpha;
#X text 545 227 a1 = -2*cos(w0);
#X text 545 287 b1 = -(1 + cos(w0));
#X text 545 267 b0 = (1 + cos(w0))/2;
#X text 535 187 HPF:;
#X text 545 307 b2 = (1 + cos(w0))/2;
#X text 452 67 (b0/a0) + (b1/a0)*z^(-1) + (b2/a0)*z^(-2);
#X text 410 82 H(z) = -----------------------------------------;
#X text 452 97 1 + (a1/a0)*z^(-1) + (a2/a0)*z^(-2);
#X text 410 42 Audio-Cookbook:;
#X text 410 122 http://musicdsp.org/files/Audio-EQ-Cookbook.txt;
#X obj 45 51 inlet~;
#X obj 301 67 inlet~;
#X obj 45 116 *~ 6.28319;
#X obj 45 94 /~ 44100;
#X obj 143 57 loadbang;
#X obj 143 78 samplerate~;
#X text 45 527 (O1) b0;
#X text 215 527 (O2) b1;
#X text 275 527 (O3) b2;
#X text 335 527 (O4) a1;
#X text 395 527 (O5) a2;
#X obj 45 507 outlet~;
#X obj 215 507 outlet~;
#X obj 275 507 outlet~;
#X obj 335 507 outlet~;
#X obj 395 507 outlet~;
#X obj 301 126 *~ 2;
#X obj 290 193 /~;
#X obj 45 221 cos~;
#X obj 155 173 cos~;
#X obj 154 147 -~ 0.25;
#X connect 0 0 36 0;
#X connect 1 0 49 0;
#X connect 2 0 3 0;
#X connect 3 0 4 0;
#X connect 3 0 7 0;
#X connect 3 0 10 0;
#X connect 3 0 13 0;
#X connect 3 0 17 0;
#X connect 4 0 44 0;
#X connect 5 0 6 0;
#X connect 6 0 4 1;
#X connect 7 0 45 0;
#X connect 8 0 9 0;
#X connect 9 0 7 1;
#X connect 10 0 46 0;
#X connect 11 0 12 0;
#X connect 12 0 10 1;
#X connect 13 0 47 0;
#X connect 14 0 13 1;
#X connect 15 0 16 0;
#X connect 16 0 17 1;
#X connect 17 0 48 0;
#X connect 18 0 3 1;
#X connect 33 0 0 0;
#X connect 34 0 1 0;
#X connect 35 0 51 0;
#X connect 35 0 53 0;
#X connect 36 0 35 0;
#X connect 37 0 38 0;
#X connect 38 0 36 1;
#X connect 49 0 50 1;
#X connect 50 0 16 1;
#X connect 50 0 18 0;
#X connect 51 0 5 0;
#X connect 51 0 8 0;
#X connect 51 0 11 0;
#X connect 51 0 14 0;
#X connect 52 0 50 0;
#X connect 53 0 52 0;
